RobotoSerifDisplay-RegularWidth1750 00m.ufo
<glyph name="quotesingle" format="2">
  <advance width="273"/>
  <unicode hex="0027"/>
  <outline>
    <contour>
      <point x="183" y="710" type="line"/>
      <point x="183" y="636"/>
      <point x="152" y="581"/>
      <point x="152" y="470" type="curve"/>
      <point x="121" y="470" type="line"/>
      <point x="121" y="581"/>
      <point x="90" y="635"/>
      <point x="90" y="710" type="curve"/>
    </contour>
  </outline>
</glyph>
<glyph name="zero" format="2">
  <advance width="702"/>
  <unicode hex="0030"/>
  <outline>
    <contour>
      <point x="351" y="-10" type="curve" smooth="yes"/>
      <point x="529" y="-10"/>
      <point x="657" y="116"/>
      <point x="657" y="304" type="curve" smooth="yes"/>
      <point x="657" y="493"/>
      <point x="529" y="619"/>
      <point x="351" y="619" type="curve" smooth="yes"/>
      <point x="173" y="619"/>
      <point x="45" y="493"/>
      <point x="45" y="304" type="curve" smooth="yes"/>
      <point x="45" y="116"/>
      <point x="173" y="-10"/>
    </contour>
    <contour>
      <point x="351" y="20" type="curve" smooth="yes"/>
      <point x="213" y="20"/>
      <point x="145" y="129"/>
      <point x="145" y="304" type="curve" smooth="yes"/>
      <point x="145" y="480"/>
      <point x="213" y="589"/>
      <point x="351" y="589" type="curve" smooth="yes"/>
      <point x="489" y="589"/>
      <point x="557" y="480"/>
      <point x="557" y="304" type="curve" smooth="yes"/>
      <point x="557" y="129"/>
      <point x="489" y="20"/>
    </contour>
  </outline>
</glyph>
<glyph name="I" format="2">
  <advance width="394"/>
  <unicode hex="0049"/>
  <outline>
    <contour>
      <point x="149.0" y="84" type="line" smooth="yes"/>
      <point x="149.0" y="40"/>
      <point x="110" y="30.0"/>
      <point x="65" y="30.0" type="curve" smooth="yes"/>
      <point x="40" y="30" type="line"/>
      <point x="40" y="0" type="line"/>
      <point x="354" y="0" type="line"/>
      <point x="354" y="30" type="line"/>
      <point x="330" y="30.0" type="line" smooth="yes"/>
      <point x="285" y="30.0"/>
      <point x="246.0" y="40"/>
      <point x="246.0" y="84" type="curve" smooth="yes"/>
      <point x="246.0" y="626" type="line" smooth="yes"/>
      <point x="246.0" y="670"/>
      <point x="285" y="680.0"/>
      <point x="330" y="680.0" type="curve" smooth="yes"/>
      <point x="354" y="680" type="line"/>
      <point x="354" y="710" type="line"/>
      <point x="40" y="710" type="line"/>
      <point x="40" y="680" type="line"/>
      <point x="65" y="680.0" type="line" smooth="yes"/>
      <point x="110" y="680.0"/>
      <point x="149.0" y="670"/>
      <point x="149.0" y="626" type="curve" smooth="yes"/>
    </contour>
  </outline>
</glyph>
<glyph name="J" format="2">
  <advance width="688"/>
  <unicode hex="004A"/>
  <outline>
    <contour>
      <point x="317" y="710" type="line"/>
      <point x="317" y="680" type="line"/>
      <point x="359" y="680" type="line" smooth="yes"/>
      <point x="404" y="680"/>
      <point x="443" y="670"/>
      <point x="443" y="626" type="curve" smooth="yes"/>
      <point x="443" y="243" type="line" smooth="yes"/>
      <point x="443" y="65"/>
      <point x="378" y="26"/>
      <point x="264" y="26" type="curve" smooth="yes"/>
      <point x="187" y="26"/>
      <point x="123" y="44"/>
      <point x="103" y="79" type="curve"/>
      <point x="73" y="116"/>
      <point x="96" y="39"/>
      <point x="141" y="28" type="curve"/>
      <point x="141" y="168" type="line"/>
      <point x="45" y="168" type="line"/>
      <point x="45" y="57" type="line"/>
      <point x="84" y="26"/>
      <point x="153" y="-10"/>
      <point x="266" y="-10" type="curve" smooth="yes"/>
      <point x="414" y="-10"/>
      <point x="540" y="52"/>
      <point x="540" y="244" type="curve" smooth="yes"/>
      <point x="540" y="626" type="line" smooth="yes"/>
      <point x="540" y="670"/>
      <point x="579" y="680"/>
      <point x="624" y="680" type="curve" smooth="yes"/>
      <point x="648" y="680" type="line"/>
      <point x="648" y="710" type="line"/>
    </contour>
  </outline>
</glyph>
<glyph name="O" format="2">
  <advance width="955"/>
  <unicode hex="004F"/>
  <outline>
    <contour>
      <point x="477" y="-10" type="curve" smooth="yes"/>
      <point x="719" y="-10"/>
      <point x="910" y="139"/>
      <point x="910" y="355" type="curve" smooth="yes"/>
      <point x="910" y="571"/>
      <point x="720" y="720"/>
      <point x="478" y="720" type="curve" smooth="yes"/>
      <point x="236" y="720"/>
      <point x="45" y="571"/>
      <point x="45" y="355" type="curve" smooth="yes"/>
      <point x="45" y="139"/>
      <point x="235" y="-10"/>
    </contour>
    <contour>
      <point x="477" y="26" type="curve" smooth="yes"/>
      <point x="276" y="26"/>
      <point x="150" y="151"/>
      <point x="150" y="355" type="curve" smooth="yes"/>
      <point x="150" y="559"/>
      <point x="277" y="684"/>
      <point x="478" y="684" type="curve" smooth="yes"/>
      <point x="679" y="684"/>
      <point x="805" y="559"/>
      <point x="805" y="355" type="curve" smooth="yes"/>
      <point x="805" y="151"/>
      <point x="678" y="26"/>
    </contour>
  </outline>
</glyph>
<glyph name="e" format="2">
  <advance width="658"/>
  <unicode hex="0065"/>
  <outline>
    <contour>
      <point x="360" y="-10" type="curve" smooth="yes"/>
      <point x="476" y="-10"/>
      <point x="558" y="35"/>
      <point x="605" y="107" type="curve"/>
      <point x="580" y="125" type="line"/>
      <point x="540" y="64"/>
      <point x="467" y="20"/>
      <point x="368" y="20" type="curve" smooth="yes"/>
      <point x="232" y="20"/>
      <point x="141" y="105"/>
      <point x="141" y="256" type="curve" smooth="yes"/>
      <point x="141" y="408"/>
      <point x="211" y="498"/>
      <point x="343" y="498" type="curve" smooth="yes"/>
      <point x="463" y="498"/>
      <point x="516" y="424"/>
      <point x="519" y="289" type="curve"/>
      <point x="550" y="300" type="line"/>
      <point x="118" y="300" type="line"/>
      <point x="118" y="272" type="line"/>
      <point x="613" y="272" type="line"/>
      <point x="612" y="435"/>
      <point x="501" y="528"/>
      <point x="343" y="528" type="curve" smooth="yes"/>
      <point x="176" y="528"/>
      <point x="45" y="420"/>
      <point x="45" y="258" type="curve" smooth="yes"/>
      <point x="45" y="95"/>
      <point x="183" y="-10"/>
    </contour>
  </outline>
</glyph>
<glyph name="t" format="2">
  <advance width="441"/>
  <unicode hex="0074"/>
  <outline>
    <contour>
      <point x="213" y="136" type="curve" smooth="yes"/>
      <point x="213" y="663" type="line"/>
      <point x="152" y="663" type="line"/>
      <point x="139" y="522" type="line"/>
      <point x="120" y="520" type="line"/>
      <point x="120" y="138" type="line" smooth="yes"/>
      <point x="120" y="31"/>
      <point x="205" y="-10"/>
      <point x="295" y="-10" type="curve" smooth="yes"/>
      <point x="339" y="-10"/>
      <point x="373" y="0"/>
      <point x="396" y="11" type="curve"/>
      <point x="396" y="41" type="line"/>
      <point x="384" y="35"/>
      <point x="355" y="20"/>
      <point x="316" y="20" type="curve" smooth="yes"/>
      <point x="259" y="20"/>
      <point x="213" y="51"/>
    </contour>
    <contour>
      <point x="146" y="587" type="line"/>
      <point x="140" y="533"/>
      <point x="101" y="515"/>
      <point x="25" y="515" type="curve" smooth="yes"/>
      <point x="16" y="515" type="line"/>
      <point x="16" y="488" type="line"/>
      <point x="377" y="488" type="line"/>
      <point x="377" y="518" type="line"/>
      <point x="163" y="518" type="line"/>
    </contour>
  </outline>
</glyph>
<glyph name="w" format="2">
  <advance width="940"/>
  <unicode hex="0077"/>
  <guideline x="158" y="479" angle="289.3741397686576" identifier="fGGTaXFl4D"/>
  <guideline x="532" y="518" angle="291.93098886477935" identifier="Ism8DiFEL0"/>
  <guideline x="463" y="518" angle="248.22016271877084" identifier="Qu2ZNwNlKj"/>
  <guideline x="831" y="467" angle="250.64100582430527" identifier="l98CRo74qx"/>
  <guideline x="313" y="86" angle="0" identifier="Yikr83i4qv"/>
  <outline>
    <contour>
      <point x="479" y="458" type="line"/>
      <point x="296" y="0" type="line"/>
      <point x="233" y="0" type="line"/>
      <point x="73" y="455" type="line" smooth="yes"/>
      <point x="63" y="482"/>
      <point x="45" y="488"/>
      <point x="16" y="488" type="curve" smooth="yes"/>
      <point x="10" y="488" type="line"/>
      <point x="10" y="518" type="line"/>
      <point x="252" y="518" type="line"/>
      <point x="252" y="488" type="line"/>
      <point x="239" y="488" type="line" smooth="yes"/>
      <point x="196" y="488"/>
      <point x="155" y="486"/>
      <point x="158" y="479" type="curve" smooth="yes"/>
      <point x="309" y="47" type="line"/>
      <point x="276" y="47" type="line"/>
      <point x="463" y="518" type="line"/>
      <point x="532" y="518" type="line"/>
      <point x="719" y="47" type="line"/>
      <point x="685" y="45" type="line"/>
      <point x="831" y="467" type="line" smooth="yes"/>
      <point x="835" y="479"/>
      <point x="797" y="488"/>
      <point x="750" y="488" type="curve" smooth="yes"/>
      <point x="737" y="488" type="line"/>
      <point x="737" y="518" type="line"/>
      <point x="930" y="518" type="line"/>
      <point x="930" y="488" type="line"/>
      <point x="924" y="488" type="line" smooth="yes"/>
      <point x="891" y="488"/>
      <point x="876" y="481"/>
      <point x="863" y="444" type="curve" smooth="yes"/>
      <point x="707" y="0" type="line"/>
      <point x="644" y="0" type="line"/>
      <point x="460" y="457" type="line"/>
    </contour>
  </outline>
</glyph>
<glyph name="z" format="2">
  <advance width="580"/>
  <unicode hex="007A"/>
  <guideline x="540" y="488" angle="49.08100544964173" identifier="L7ld6Ltno5"/>
  <outline>
    <contour>
      <point x="125" y="8" type="line"/>
      <point x="540" y="488" type="line"/>
      <point x="540" y="518" type="line"/>
      <point x="58" y="518" type="line"/>
      <point x="58" y="351" type="line"/>
      <point x="88" y="351" type="line"/>
      <point x="101" y="420" type="line" smooth="yes"/>
      <point x="112" y="477"/>
      <point x="132" y="491"/>
      <point x="223" y="491" type="curve" smooth="yes"/>
      <point x="482" y="491" type="line"/>
      <point x="444" y="503" type="line"/>
      <point x="35" y="30" type="line"/>
      <point x="35" y="0" type="line"/>
      <point x="550" y="0" type="line"/>
      <point x="550" y="177" type="line"/>
      <point x="520" y="177" type="line"/>
      <point x="507" y="98" type="line" smooth="yes"/>
      <point x="497" y="40"/>
      <point x="469" y="27"/>
      <point x="381" y="27" type="curve" smooth="yes"/>
      <point x="90" y="27" type="line"/>
    </contour>
  </outline>
</glyph>
<glyph name="acute" format="2">
  <advance width="619"/>
  <unicode hex="00B4"/>
  <anchor x="269" y="527.0" name="_top"/>
  <outline>
    <contour>
      <point x="302" y="715" type="curve" smooth="yes"/>
      <point x="243" y="589" type="line"/>
      <point x="243" y="576" type="line"/>
      <point x="266" y="576" type="line"/>
      <point x="375" y="673" type="line" smooth="yes"/>
      <point x="396" y="693"/>
      <point x="412" y="713"/>
      <point x="412" y="730" type="curve" smooth="yes"/>
      <point x="412" y="750"/>
      <point x="393" y="766"/>
      <point x="365" y="766" type="curve" smooth="yes"/>
      <point x="336" y="766"/>
      <point x="318" y="750"/>
    </contour>
  </outline>
</glyph>
<glyph name="Aogonek" format="2">
  <advance width="846"/>
  <unicode hex="0104"/>
  <outline>
    <contour>
      <point x="219" y="288" type="line"/>
      <point x="205" y="255" type="line"/>
      <point x="596" y="255" type="line"/>
      <point x="595" y="288" type="line"/>
    </contour>
    <contour>
      <point x="2" y="0" type="line"/>
      <point x="257" y="0" type="line"/>
      <point x="257" y="30" type="line"/>
      <point x="227" y="30" type="line" smooth="yes"/>
      <point x="166" y="30"/>
      <point x="138" y="40"/>
      <point x="138" y="52" type="curve"/>
      <point x="430" y="710" type="line"/>
      <point x="381" y="710" type="line"/>
      <point x="103" y="86" type="line" smooth="yes"/>
      <point x="85" y="45"/>
      <point x="52" y="30"/>
      <point x="10" y="30" type="curve"/>
      <point x="2" y="30" type="line"/>
    </contour>
    <contour>
      <point x="711" y="28" type="curve"/>
      <point x="589" y="-26"/>
      <point x="496" y="-78"/>
      <point x="496" y="-144" type="curve" smooth="yes"/>
      <point x="496" y="-201"/>
      <point x="552" y="-235"/>
      <point x="627" y="-235" type="curve" smooth="yes"/>
      <point x="690" y="-235"/>
      <point x="726" y="-216"/>
      <point x="758" y="-188" type="curve"/>
      <point x="737" y="-169" type="line"/>
      <point x="713" y="-187"/>
      <point x="688" y="-202"/>
      <point x="652" y="-202" type="curve" smooth="yes"/>
      <point x="614" y="-202"/>
      <point x="587" y="-183"/>
      <point x="587" y="-138" type="curve" smooth="yes"/>
      <point x="587" y="-91"/>
      <point x="620" y="-44"/>
      <point x="727" y="13" type="curve"/>
      <point x="726" y="15"/>
      <point x="711" y="27"/>
    </contour>
    <contour>
      <point x="684" y="0" type="line"/>
      <point x="843" y="0" type="line"/>
      <point x="843" y="30" type="line"/>
      <point x="836" y="30" type="line"/>
      <point x="798" y="30"/>
      <point x="769" y="34"/>
      <point x="756" y="63" type="curve" smooth="yes"/>
      <point x="465" y="710" type="line"/>
      <point x="407" y="710" type="line"/>
      <point x="386" y="671" type="line"/>
    </contour>
  </outline>
</glyph>
<glyph name="lslash" format="2">
  <advance width="373"/>
  <unicode hex="0142"/>
  <outline>
    <contour>
      <point x="33" y="245" type="line"/>
      <point x="363" y="486" type="line"/>
      <point x="363" y="526" type="line"/>
      <point x="33" y="285" type="line"/>
    </contour>
    <component base="l" xOffset="44"/>
  </outline>
</glyph>
<glyph name="Tbar" format="2">
  <advance width="781"/>
  <unicode hex="0166"/>
  <outline>
    <contour>
      <point x="146" y="370" type="line"/>
      <point x="146" y="338" type="line"/>
      <point x="637" y="338" type="line"/>
      <point x="637" y="370" type="line"/>
    </contour>
    <component base="T" xOffset="69"/>
  </outline>
</glyph>
<glyph name="tbar" format="2">
  <advance width="445"/>
  <unicode hex="0167"/>
  <outline>
    <contour>
      <point x="392" y="325" type="line"/>
      <point x="15" y="325" type="line"/>
      <point x="15" y="293" type="line"/>
      <point x="392" y="293" type="line"/>
    </contour>
    <component base="t" xOffset="42"/>
  </outline>
</glyph>
<glyph name="Uhorn" format="2">
  <advance width="980"/>
  <unicode hex="01AF"/>
  <anchor x="517" y="663.0" name="top"/>
  <outline>
    <contour>
      <point x="892" y="690" type="curve" smooth="yes"/>
      <point x="992" y="712"/>
      <point x="1040" y="769"/>
      <point x="1041" y="877" type="curve"/>
      <point x="969" y="877" type="line"/>
      <point x="966" y="741"/>
      <point x="921" y="712"/>
      <point x="770" y="711" type="curve" smooth="yes"/>
      <point x="626" y="710" type="line"/>
      <point x="626" y="680" type="line"/>
      <point x="650" y="680" type="line" smooth="yes"/>
      <point x="711" y="680"/>
      <point x="751" y="673"/>
      <point x="751" y="656" type="curve" smooth="yes"/>
      <point x="751" y="253" type="line" smooth="yes"/>
      <point x="751" y="101"/>
      <point x="654" y="37"/>
      <point x="504" y="37" type="curve" smooth="yes"/>
      <point x="352" y="37"/>
      <point x="249" y="95"/>
      <point x="249" y="247" type="curve" smooth="yes"/>
      <point x="249" y="670" type="line" smooth="yes"/>
      <point x="249" y="677"/>
      <point x="306" y="680"/>
      <point x="350" y="680" type="curve" smooth="yes"/>
      <point x="361" y="680" type="line"/>
      <point x="361" y="710" type="line"/>
      <point x="39" y="710" type="line"/>
      <point x="39" y="680" type="line"/>
      <point x="49" y="680" type="line" smooth="yes"/>
      <point x="105" y="680"/>
      <point x="151" y="673"/>
      <point x="151" y="644" type="curve" smooth="yes"/>
      <point x="151" y="246" type="line" smooth="yes"/>
      <point x="151" y="70"/>
      <point x="286" y="-10"/>
      <point x="484" y="-10" type="curve" smooth="yes"/>
      <point x="665" y="-10"/>
      <point x="800" y="69"/>
      <point x="800" y="253" type="curve" smooth="yes"/>
      <point x="800" y="627" type="line" smooth="yes"/>
      <point x="800" y="670"/>
      <point x="826" y="676"/>
    </contour>
  </outline>
</glyph>
<glyph name="horizontalbar" format="2">
  <advance width="1181"/>
  <unicode hex="2015"/>
  <outline>
    <contour>
      <point x="-6" y="336" type="line"/>
      <point x="-6" y="294" type="line"/>
      <point x="1187" y="294" type="line"/>
      <point x="1187" y="336" type="line"/>
    </contour>
  </outline>
</glyph>
<glyph name="minute" format="2">
  <advance width="291"/>
  <unicode hex="2032"/>
  <outline>
    <contour>
      <point x="228" y="710" type="line"/>
      <point x="214" y="620"/>
      <point x="174" y="584"/>
      <point x="156" y="467" type="curve"/>
      <point x="116" y="467" type="line"/>
      <point x="138" y="605"/>
      <point x="114" y="643"/>
      <point x="128" y="710" type="curve"/>
    </contour>
  </outline>
</glyph>
<glyph name="franc" format="2">
  <advance width="695"/>
  <unicode hex="20A3"/>
  <outline>
    <contour>
      <point x="265" y="676" type="line"/>
      <point x="442" y="676" type="line" smooth="yes"/>
      <point x="550" y="676"/>
      <point x="593" y="663"/>
      <point x="602" y="623" type="curve" smooth="yes"/>
      <point x="620" y="532" type="line"/>
      <point x="658" y="532" type="line"/>
      <point x="658" y="710" type="line"/>
      <point x="55" y="710" type="line"/>
      <point x="55" y="680" type="line"/>
      <point x="65" y="680" type="line" smooth="yes"/>
      <point x="120" y="680"/>
      <point x="167" y="673"/>
      <point x="167" y="644" type="curve" smooth="yes"/>
      <point x="167" y="66" type="line" smooth="yes"/>
      <point x="167" y="37"/>
      <point x="121" y="30"/>
      <point x="65" y="30" type="curve" smooth="yes"/>
      <point x="55" y="30" type="line"/>
      <point x="55" y="0" type="line"/>
      <point x="398" y="0" type="line"/>
      <point x="398" y="30" type="line"/>
      <point x="376" y="30" type="line" smooth="yes"/>
      <point x="326" y="30"/>
      <point x="265" y="33"/>
      <point x="265" y="58" type="curve" smooth="yes"/>
    </contour>
    <contour>
      <point x="249" y="401" type="curve"/>
      <point x="249" y="372" type="line"/>
      <point x="342" y="371"/>
      <point x="499" y="368"/>
      <point x="556" y="353" type="curve"/>
      <point x="556" y="418" type="line"/>
      <point x="499" y="406"/>
      <point x="342" y="403"/>
    </contour>
    <contour>
      <point x="55" y="220" type="line"/>
      <point x="55" y="188" type="line"/>
      <point x="447" y="188" type="line"/>
      <point x="447" y="220" type="line"/>
    </contour>
  </outline>
</glyph>
<glyph name="uni20B8" format="2">
  <advance width="695"/>
  <unicode hex="20B8"/>
  <outline>
    <contour>
      <point x="31" y="710" type="line"/>
      <point x="31" y="678" type="line"/>
      <point x="665" y="678" type="line"/>
      <point x="665" y="710" type="line"/>
    </contour>
    <contour>
      <point x="299" y="66" type="line" smooth="yes"/>
      <point x="299" y="37"/>
      <point x="252" y="30"/>
      <point x="196" y="30" type="curve" smooth="yes"/>
      <point x="176" y="30" type="line"/>
      <point x="176" y="0" type="line"/>
      <point x="520" y="0" type="line"/>
      <point x="520" y="30" type="line"/>
      <point x="499" y="30" type="line" smooth="yes"/>
      <point x="444" y="30"/>
      <point x="396" y="37"/>
      <point x="396" y="66" type="curve" smooth="yes"/>
      <point x="396" y="536" type="line"/>
      <point x="450" y="536" type="line" smooth="yes"/>
      <point x="558" y="536"/>
      <point x="601" y="522"/>
      <point x="609" y="482" type="curve" smooth="yes"/>
      <point x="629" y="386" type="line"/>
      <point x="665" y="386" type="line"/>
      <point x="665" y="567" type="line"/>
      <point x="31" y="567" type="line"/>
      <point x="31" y="386" type="line"/>
      <point x="66" y="386" type="line"/>
      <point x="87" y="482" type="line" smooth="yes"/>
      <point x="95" y="522"/>
      <point x="138" y="536"/>
      <point x="246" y="536" type="curve" smooth="yes"/>
      <point x="299" y="536" type="line"/>
    </contour>
  </outline>
</glyph>
<glyph name="uni25B4" format="2">
  <advance width="1041"/>
  <unicode hex="25B4"/>
  <outline>
    <contour>
      <point x="19" y="0" type="line"/>
      <point x="1022" y="0" type="line"/>
      <point x="520" y="715" type="line"/>
    </contour>
  </outline>
</glyph>
<glyph name="E.alt" format="2">
  <advance width="728"/>
  <outline>
    <contour>
      <point x="677" y="200" type="line"/>
      <point x="642" y="200" type="line"/>
      <point x="621" y="84" type="line" smooth="yes"/>
      <point x="614" y="43"/>
      <point x="572" y="31"/>
      <point x="462" y="31" type="curve" smooth="yes"/>
      <point x="245" y="31" type="line"/>
      <point x="245" y="679" type="line"/>
      <point x="446" y="679" type="line" smooth="yes"/>
      <point x="550" y="679"/>
      <point x="588" y="667"/>
      <point x="597" y="628" type="curve" smooth="yes"/>
      <point x="616" y="535" type="line"/>
      <point x="651" y="535" type="line"/>
      <point x="651" y="710" type="line"/>
      <point x="39" y="710" type="line"/>
      <point x="39" y="683" type="line"/>
      <point x="49" y="683" type="line" smooth="yes"/>
      <point x="102" y="683"/>
      <point x="148" y="677"/>
      <point x="148" y="649" type="curve" smooth="yes"/>
      <point x="148" y="61" type="line" smooth="yes"/>
      <point x="148" y="33"/>
      <point x="103" y="27"/>
      <point x="49" y="27" type="curve" smooth="yes"/>
      <point x="39" y="27" type="line"/>
      <point x="39" y="0" type="line"/>
      <point x="677" y="0" type="line"/>
    </contour>
    <contour>
      <point x="211" y="378" type="line"/>
      <point x="211" y="348" type="line"/>
      <point x="450" y="348" type="line"/>
      <point x="488" y="348"/>
      <point x="500" y="317"/>
      <point x="500" y="283" type="curve" smooth="yes"/>
      <point x="500" y="277" type="line"/>
      <point x="532" y="277" type="line"/>
      <point x="532" y="450" type="line"/>
      <point x="500" y="450" type="line"/>
      <point x="500" y="444" type="line" smooth="yes"/>
      <point x="500" y="409"/>
      <point x="488" y="378"/>
      <point x="450" y="378" type="curve"/>
    </contour>
  </outline>
</glyph>
<glyph name="F.alt" format="2">
  <advance width="693"/>
  <outline>
    <contour>
      <point x="245" y="679" type="line"/>
      <point x="442" y="679" type="line" smooth="yes"/>
      <point x="550" y="679"/>
      <point x="588" y="667"/>
      <point x="596" y="628" type="curve" smooth="yes"/>
      <point x="615" y="535" type="line"/>
      <point x="649" y="535" type="line"/>
      <point x="649" y="710" type="line"/>
      <point x="39" y="710" type="line"/>
      <point x="39" y="683" type="line"/>
      <point x="49" y="683" type="line" smooth="yes"/>
      <point x="102" y="683"/>
      <point x="148" y="677"/>
      <point x="148" y="649" type="curve" smooth="yes"/>
      <point x="148" y="61" type="line" smooth="yes"/>
      <point x="148" y="33"/>
      <point x="103" y="27"/>
      <point x="49" y="27" type="curve" smooth="yes"/>
      <point x="39" y="27" type="line"/>
      <point x="39" y="0" type="line"/>
      <point x="374" y="0" type="line"/>
      <point x="374" y="27" type="line"/>
      <point x="352" y="27" type="line" smooth="yes"/>
      <point x="305" y="27"/>
      <point x="245" y="29"/>
      <point x="245" y="53" type="curve" smooth="yes"/>
    </contour>
    <contour>
      <point x="213" y="369" type="line"/>
      <point x="213" y="339" type="line"/>
      <point x="456" y="339" type="line"/>
      <point x="493" y="339"/>
      <point x="506" y="308"/>
      <point x="506" y="274" type="curve" smooth="yes"/>
      <point x="506" y="268" type="line"/>
      <point x="538" y="268" type="line"/>
      <point x="538" y="441" type="line"/>
      <point x="506" y="441" type="line"/>
      <point x="506" y="435" type="line" smooth="yes"/>
      <point x="506" y="400"/>
      <point x="493" y="369"/>
      <point x="456" y="369" type="curve"/>
    </contour>
  </outline>
</glyph>
<glyph name="blackdownpointingtriangle" format="2">
  <advance width="1041"/>
  <outline>
    <contour>
      <point x="19" y="715" type="line"/>
      <point x="520" y="0" type="line"/>
      <point x="1022" y="715" type="line"/>
    </contour>
  </outline>
</glyph>
<glyph name="blackuppointingtriangle" format="2">
  <advance width="802"/>
  <outline>
    <contour>
      <point x="63" y="91" type="line"/>
      <point x="738" y="91" type="line"/>
      <point x="401" y="464" type="line"/>
    </contour>
  </outline>
</glyph>
<glyph name="breve_acute.uc" format="2">
  <advance width="632"/>
  <anchor x="311" y="744.0" name="_top"/>
  <outline>
    <contour>
      <point x="351" y="1021" type="curve" smooth="yes"/>
      <point x="265" y="929" type="line"/>
      <point x="265" y="916" type="line"/>
      <point x="285" y="916" type="line"/>
      <point x="403" y="966" type="line" smooth="yes"/>
      <point x="445" y="985"/>
      <point x="473" y="1004"/>
      <point x="473" y="1028" type="curve" smooth="yes"/>
      <point x="473" y="1047"/>
      <point x="455" y="1064"/>
      <point x="426" y="1064" type="curve" smooth="yes"/>
      <point x="397" y="1064"/>
      <point x="377" y="1049"/>
    </contour>
    <component base="breve.uc" xOffset="60"/>
  </outline>
</glyph>
<glyph name="breve_grave.uc" format="2">
  <advance width="632"/>
  <anchor x="311" y="744.0" name="_top"/>
  <outline>
    <contour>
      <point x="283" y="1021" type="curve" smooth="yes"/>
      <point x="369" y="929" type="line"/>
      <point x="369" y="916" type="line"/>
      <point x="349" y="916" type="line"/>
      <point x="231" y="966" type="line" smooth="yes"/>
      <point x="190" y="985"/>
      <point x="162" y="1004"/>
      <point x="162" y="1028" type="curve" smooth="yes"/>
      <point x="162" y="1047"/>
      <point x="180" y="1064"/>
      <point x="209" y="1064" type="curve" smooth="yes"/>
      <point x="238" y="1064"/>
      <point x="257" y="1049"/>
    </contour>
    <component base="breve.uc" xOffset="48"/>
  </outline>
</glyph>
<glyph name="breve_tilde.uc" format="2">
  <advance width="619"/>
  <anchor x="336" y="694.0" name="_top"/>
  <outline>
    <contour>
      <point x="308" y="759" type="curve" smooth="yes"/>
      <point x="204" y="759"/>
      <point x="137" y="803"/>
      <point x="130" y="883" type="curve"/>
      <point x="168" y="883" type="line"/>
      <point x="182" y="837"/>
      <point x="226" y="821"/>
      <point x="311" y="821" type="curve" smooth="yes"/>
      <point x="397" y="821"/>
      <point x="439" y="838"/>
      <point x="452" y="883" type="curve"/>
      <point x="485" y="883" type="line"/>
      <point x="478" y="803"/>
      <point x="412" y="759"/>
    </contour>
    <contour>
      <point x="384" y="924" type="curve" smooth="yes"/>
      <point x="447" y="924"/>
      <point x="486" y="959"/>
      <point x="508" y="1019" type="curve"/>
      <point x="473" y="1029" type="line"/>
      <point x="461" y="997"/>
      <point x="440" y="978"/>
      <point x="409" y="978" type="curve" smooth="yes"/>
      <point x="348" y="978"/>
      <point x="309" y="1033"/>
      <point x="231" y="1033" type="curve" smooth="yes"/>
      <point x="166" y="1033"/>
      <point x="130" y="1000"/>
      <point x="114" y="936" type="curve"/>
      <point x="148" y="926" type="line"/>
      <point x="158" y="961"/>
      <point x="176" y="980"/>
      <point x="208" y="980" type="curve" smooth="yes"/>
      <point x="261" y="980"/>
      <point x="302" y="924"/>
    </contour>
  </outline>
</glyph>
<glyph name="caron.alt" format="2">
  <advance width="619"/>
  <anchor x="104" y="574.0" name="_right"/>
  <outline>
    <contour>
      <point x="156" y="526" type="line"/>
      <point x="120" y="526" type="line"/>
      <point x="120" y="536" type="line"/>
      <point x="143" y="710" type="line"/>
      <point x="242" y="710" type="line"/>
    </contour>
  </outline>
</glyph>
<glyph name="circumflex.uc" format="2">
  <advance width="620"/>
  <anchor x="304" y="694.0" name="_top"/>
  <outline>
    <contour>
      <point x="362" y="901" type="line"/>
      <point x="497" y="766" type="line"/>
      <point x="497" y="756" type="line"/>
      <point x="465" y="756" type="line"/>
      <point x="290" y="857" type="line"/>
      <point x="316" y="857" type="line"/>
      <point x="147" y="756" type="line"/>
      <point x="122" y="756" type="line"/>
      <point x="122" y="766" type="line"/>
      <point x="257" y="901" type="line"/>
    </contour>
  </outline>
</glyph>
<glyph name="circumflex_hook" format="2">
  <advance width="632"/>
  <anchor x="304" y="559.0" name="_top"/>
  <outline>
    <contour>
      <point x="378" y="804" type="line"/>
      <point x="383" y="844"/>
      <point x="426" y="879"/>
      <point x="509" y="879" type="curve" smooth="yes"/>
      <point x="589" y="879"/>
      <point x="636" y="853"/>
      <point x="636" y="809" type="curve"/>
      <point x="636" y="758"/>
      <point x="567" y="735"/>
      <point x="490" y="730" type="curve"/>
      <point x="522" y="754" type="line"/>
      <point x="522" y="701" type="line"/>
      <point x="477" y="701" type="line"/>
      <point x="477" y="750" type="line"/>
      <point x="527" y="753"/>
      <point x="552" y="771"/>
      <point x="552" y="806" type="curve"/>
      <point x="552" y="833"/>
      <point x="537" y="849"/>
      <point x="503" y="849" type="curve" smooth="yes"/>
      <point x="464" y="849"/>
      <point x="449" y="831"/>
      <point x="444" y="804" type="curve"/>
    </contour>
    <component base="circumflex" xOffset="76"/>
  </outline>
</glyph>
<glyph name="circumflex_hook.uc" format="2">
  <advance width="632"/>
  <anchor x="303" y="694.0" name="_top"/>
  <outline>
    <contour>
      <point x="406" y="941" type="line"/>
      <point x="412" y="981"/>
      <point x="455" y="1015"/>
      <point x="536" y="1015" type="curve" smooth="yes"/>
      <point x="618" y="1015"/>
      <point x="665" y="988"/>
      <point x="665" y="944" type="curve" smooth="yes"/>
      <point x="665" y="893"/>
      <point x="595" y="872"/>
      <point x="518" y="867" type="curve"/>
      <point x="549" y="891" type="line"/>
      <point x="549" y="837" type="line"/>
      <point x="504" y="837" type="line"/>
      <point x="504" y="887" type="line"/>
      <point x="556" y="890"/>
      <point x="583" y="907"/>
      <point x="583" y="942" type="curve" smooth="yes"/>
      <point x="583" y="969"/>
      <point x="567" y="985"/>
      <point x="532" y="985" type="curve" smooth="yes"/>
      <point x="494" y="985"/>
      <point x="476" y="966"/>
      <point x="472" y="941" type="curve"/>
    </contour>
    <component base="circumflex.uc" xOffset="79"/>
  </outline>
</glyph>
<glyph name="colonsign.proportional" format="2">
  <advance width="887"/>
  <outline>
    <contour>
      <point x="240" y="-120" type="line"/>
      <point x="289" y="-120" type="line"/>
      <point x="318" y="50" type="line"/>
      <point x="322" y="70" type="line"/>
      <point x="424" y="675" type="line"/>
      <point x="427" y="687" type="line"/>
      <point x="444" y="790" type="line"/>
      <point x="395" y="790" type="line"/>
      <point x="376" y="679" type="line"/>
      <point x="374" y="665" type="line"/>
      <point x="276" y="90" type="line"/>
      <point x="272" y="69" type="line"/>
    </contour>
    <contour>
      <point x="444" y="-120" type="line"/>
      <point x="493" y="-120" type="line"/>
      <point x="517" y="22" type="line"/>
      <point x="519" y="35" type="line"/>
      <point x="628" y="670" type="line"/>
      <point x="630" y="681" type="line"/>
      <point x="648" y="790" type="line"/>
      <point x="599" y="790" type="line"/>
      <point x="581" y="687" type="line"/>
      <point x="580" y="678" type="line"/>
      <point x="470" y="34" type="line"/>
      <point x="468" y="19" type="line"/>
    </contour>
    <contour>
      <point x="508" y="670" type="curve" smooth="yes"/>
      <point x="655" y="670"/>
      <point x="742" y="627"/>
      <point x="778" y="578" type="curve"/>
      <point x="781" y="605"/>
      <point x="761" y="630"/>
      <point x="731" y="635" type="curve"/>
      <point x="731" y="496" type="line"/>
      <point x="831" y="496" type="line"/>
      <point x="831" y="614" type="line"/>
      <point x="788" y="646"/>
      <point x="678" y="700"/>
      <point x="508" y="700" type="curve" smooth="yes"/>
      <point x="241" y="700"/>
      <point x="62" y="565"/>
      <point x="62" y="355" type="curve" smooth="yes"/>
      <point x="62" y="142"/>
      <point x="242" y="10"/>
      <point x="489" y="10" type="curve" smooth="yes"/>
      <point x="677" y="10"/>
      <point x="797" y="105"/>
      <point x="840" y="237" type="curve"/>
      <point x="803" y="252" type="line"/>
      <point x="763" y="130"/>
      <point x="661" y="42"/>
      <point x="491" y="42" type="curve" smooth="yes"/>
      <point x="295" y="42"/>
      <point x="165" y="166"/>
      <point x="165" y="355" type="curve" smooth="yes"/>
      <point x="165" y="545"/>
      <point x="294" y="670"/>
    </contour>
  </outline>
</glyph>
<glyph name="four.den" format="2">
  <advance width="397"/>
  <outline>
    <contour>
      <point x="20" y="86" type="line"/>
      <point x="387" y="86" type="line"/>
      <point x="387" y="134" type="line"/>
      <point x="53" y="134" type="line"/>
      <point x="55" y="114" type="line"/>
      <point x="247" y="311" type="line"/>
      <point x="281" y="341" type="line"/>
      <point x="234" y="341" type="line"/>
      <point x="20" y="122" type="line"/>
    </contour>
    <contour>
      <point x="312" y="0" type="line"/>
      <point x="312" y="341" type="line"/>
      <point x="250" y="341" type="line"/>
      <point x="235" y="316" type="line"/>
      <point x="235" y="0" type="line"/>
    </contour>
  </outline>
</glyph>
<glyph name="four.lin" format="2">
  <advance width="695"/>
  <outline>
    <contour>
      <point x="30" y="205" type="line"/>
      <point x="675" y="205" type="line"/>
      <point x="675" y="263" type="line"/>
      <point x="63" y="263" type="line"/>
      <point x="55" y="219" type="line"/>
      <point x="443" y="675" type="line"/>
      <point x="473" y="710" type="line"/>
      <point x="422" y="710" type="line"/>
      <point x="30" y="253" type="line"/>
    </contour>
    <contour>
      <point x="279" y="0" type="line"/>
      <point x="663" y="0" type="line"/>
      <point x="663" y="29" type="line"/>
      <point x="640" y="29" type="line" smooth="yes"/>
      <point x="574" y="29"/>
      <point x="524" y="36"/>
      <point x="524" y="65" type="curve" smooth="yes"/>
      <point x="524" y="710" type="line"/>
      <point x="435" y="710" type="line"/>
      <point x="427" y="683" type="line"/>
      <point x="427" y="65" type="line" smooth="yes"/>
      <point x="427" y="36"/>
      <point x="378" y="29"/>
      <point x="312" y="29" type="curve" smooth="yes"/>
      <point x="279" y="29" type="line"/>
    </contour>
  </outline>
</glyph>
<glyph name="g.alt" format="2">
  <advance width="754"/>
  <outline>
    <contour>
      <point x="565" y="22" type="line" smooth="yes"/>
      <point x="565" y="-132"/>
      <point x="490" y="-200"/>
      <point x="337" y="-200" type="curve" smooth="yes"/>
      <point x="244" y="-200"/>
      <point x="149" y="-174"/>
      <point x="116" y="-129" type="curve"/>
      <point x="109" y="-170"/>
      <point x="132" y="-183"/>
      <point x="162" y="-185" type="curve"/>
      <point x="162" y="-55" type="line"/>
      <point x="75" y="-55" type="line"/>
      <point x="75" y="-155" type="line"/>
      <point x="117" y="-194"/>
      <point x="219" y="-230"/>
      <point x="338" y="-230" type="curve" smooth="yes"/>
      <point x="536" y="-230"/>
      <point x="659" y="-139"/>
      <point x="659" y="24" type="curve" smooth="yes"/>
      <point x="659" y="524" type="line"/>
      <point x="627" y="524" type="line"/>
      <point x="570" y="411" type="line"/>
      <point x="565" y="408" type="line"/>
    </contour>
    <contour>
      <point x="145" y="259" type="curve" smooth="yes"/>
      <point x="145" y="400"/>
      <point x="218" y="498"/>
      <point x="351" y="498" type="curve" smooth="yes"/>
      <point x="451" y="498"/>
      <point x="526" y="441"/>
      <point x="581" y="360" type="curve"/>
      <point x="581" y="406" type="line"/>
      <point x="517" y="487"/>
      <point x="446" y="528"/>
      <point x="340" y="528" type="curve" smooth="yes"/>
      <point x="169" y="528"/>
      <point x="45" y="419"/>
      <point x="45" y="259" type="curve" smooth="yes"/>
      <point x="45" y="99"/>
      <point x="169" y="-10"/>
      <point x="340" y="-10" type="curve" smooth="yes"/>
      <point x="446" y="-10"/>
      <point x="517" y="31"/>
      <point x="581" y="112" type="curve"/>
      <point x="581" y="155" type="line"/>
      <point x="524" y="72"/>
      <point x="451" y="20"/>
      <point x="355" y="20" type="curve" smooth="yes"/>
      <point x="218" y="20"/>
      <point x="145" y="118"/>
    </contour>
  </outline>
</glyph>
<glyph name="guarani.proportional" format="2">
  <advance width="945"/>
  <outline>
    <contour>
      <point x="619" y="353" type="line"/>
      <point x="619" y="323" type="line"/>
      <point x="629" y="323" type="line" smooth="yes"/>
      <point x="688" y="323"/>
      <point x="732" y="316"/>
      <point x="732" y="287" type="curve"/>
      <point x="824" y="287" type="line"/>
      <point x="824" y="316"/>
      <point x="864" y="323"/>
      <point x="919" y="323" type="curve" smooth="yes"/>
      <point x="924" y="323" type="line"/>
      <point x="924" y="353" type="line"/>
    </contour>
    <contour>
      <point x="450" y="790" type="line"/>
      <point x="450" y="685" type="line"/>
      <point x="450" y="676" type="line"/>
      <point x="450" y="32" type="line"/>
      <point x="450" y="22" type="line"/>
      <point x="450" y="-120" type="line"/>
      <point x="495" y="-120" type="line"/>
      <point x="495" y="22" type="line"/>
      <point x="495" y="31" type="line"/>
      <point x="495" y="678" type="line"/>
      <point x="495" y="684" type="line"/>
      <point x="495" y="790" type="line"/>
    </contour>
    <contour>
      <point x="497" y="10" type="curve" smooth="yes"/>
      <point x="643" y="10"/>
      <point x="775" y="74"/>
      <point x="824" y="130" type="curve"/>
      <point x="824" y="333" type="line"/>
      <point x="732" y="335" type="line"/>
      <point x="732" y="117" type="line"/>
      <point x="689" y="83"/>
      <point x="625" y="40"/>
      <point x="499" y="40" type="curve" smooth="yes"/>
      <point x="288" y="40"/>
      <point x="164" y="160"/>
      <point x="164" y="355" type="curve" smooth="yes"/>
      <point x="164" y="546"/>
      <point x="290" y="670"/>
      <point x="500" y="670" type="curve" smooth="yes"/>
      <point x="624" y="670"/>
      <point x="715" y="630"/>
      <point x="762" y="568" type="curve"/>
      <point x="772" y="591"/>
      <point x="747" y="624"/>
      <point x="708" y="633" type="curve"/>
      <point x="708" y="509" type="line"/>
      <point x="813" y="509" type="line"/>
      <point x="813" y="601" type="line"/>
      <point x="764" y="656"/>
      <point x="643" y="700"/>
      <point x="500" y="700" type="curve" smooth="yes"/>
      <point x="240" y="700"/>
      <point x="60" y="558"/>
      <point x="60" y="355" type="curve" smooth="yes"/>
      <point x="60" y="149"/>
      <point x="235" y="10"/>
    </contour>
  </outline>
</glyph>
<glyph name="hook.uc" format="2">
  <advance width="632"/>
  <anchor x="275" y="679.0" name="_top"/>
  <outline>
    <contour>
      <point x="142" y="883" type="line"/>
      <point x="149" y="929"/>
      <point x="199" y="967"/>
      <point x="292" y="967" type="curve" smooth="yes"/>
      <point x="383" y="967"/>
      <point x="435" y="937"/>
      <point x="435" y="887" type="curve" smooth="yes"/>
      <point x="435" y="828"/>
      <point x="359" y="800"/>
      <point x="276" y="794" type="curve"/>
      <point x="305" y="820" type="line"/>
      <point x="305" y="757" type="line"/>
      <point x="258" y="757" type="line"/>
      <point x="258" y="816" type="line"/>
      <point x="320" y="822"/>
      <point x="353" y="844"/>
      <point x="353" y="886" type="curve" smooth="yes"/>
      <point x="353" y="917"/>
      <point x="331" y="938"/>
      <point x="287" y="938" type="curve" smooth="yes"/>
      <point x="239" y="938"/>
      <point x="215" y="915"/>
      <point x="211" y="883" type="curve"/>
    </contour>
  </outline>
</glyph>
<glyph name="horn" format="2">
  <advance width="620"/>
  <anchor x="318" y="444.0" name="_top"/>
  <outline>
    <contour>
      <point x="169" y="505" type="curve"/>
      <point x="400" y="491"/>
      <point x="485" y="552"/>
      <point x="488" y="689" type="curve"/>
      <point x="402" y="689" type="line"/>
      <point x="399" y="557"/>
      <point x="355" y="526"/>
      <point x="135" y="526" type="curve"/>
      <point x="136" y="525"/>
      <point x="167" y="506"/>
    </contour>
  </outline>
</glyph>
<glyph name="liraTurkish" format="2">
  <advance width="699"/>
  <outline>
    <contour>
      <point x="39" y="398" type="line"/>
      <point x="39" y="366" type="line"/>
      <point x="522" y="539" type="line"/>
      <point x="522" y="570" type="line"/>
    </contour>
    <contour>
      <point x="39" y="233" type="line"/>
      <point x="39" y="201" type="line"/>
      <point x="522" y="374" type="line"/>
      <point x="522" y="405" type="line"/>
    </contour>
    <contour>
      <point x="334" y="32" type="curve" smooth="yes"/>
      <point x="255" y="32" type="line"/>
      <point x="255" y="644" type="line" smooth="yes"/>
      <point x="255" y="673"/>
      <point x="303" y="680"/>
      <point x="360" y="680" type="curve" smooth="yes"/>
      <point x="369" y="680" type="line"/>
      <point x="369" y="710" type="line"/>
      <point x="45" y="710" type="line"/>
      <point x="45" y="680" type="line"/>
      <point x="55" y="680" type="line" smooth="yes"/>
      <point x="110" y="680"/>
      <point x="158" y="673"/>
      <point x="158" y="644" type="curve" smooth="yes"/>
      <point x="158" y="66" type="line" smooth="yes"/>
      <point x="158" y="37"/>
      <point x="112" y="30"/>
      <point x="55" y="30" type="curve" smooth="yes"/>
      <point x="45" y="30" type="line"/>
      <point x="45" y="0" type="line"/>
      <point x="320" y="0" type="line" smooth="yes"/>
      <point x="543" y="0"/>
      <point x="663" y="97"/>
      <point x="675" y="275" type="curve"/>
      <point x="595" y="295" type="line"/>
      <point x="590" y="125"/>
      <point x="504" y="32"/>
    </contour>
  </outline>
</glyph>
<glyph name="plus.sup" format="2">
  <advance width="493"/>
  <outline>
    <contour>
      <point x="227" y="720" type="line"/>
      <point x="227" y="414" type="line"/>
      <point x="264" y="414" type="line"/>
      <point x="264" y="720" type="line"/>
    </contour>
    <contour>
      <point x="431" y="580" type="line"/>
      <point x="62" y="580" type="line"/>
      <point x="62" y="555" type="line"/>
      <point x="431" y="555" type="line"/>
    </contour>
  </outline>
</glyph>
<glyph name="ringhalfright" format="2">
  <advance width="619"/>
  <anchor x="309" y="566.0" name="_top"/>
  <outline>
    <contour>
      <point x="308" y="771" type="line"/>
      <point x="378" y="771"/>
      <point x="434" y="738"/>
      <point x="434" y="679" type="curve" smooth="yes"/>
      <point x="434" y="621"/>
      <point x="378" y="588"/>
      <point x="308" y="588" type="curve"/>
      <point x="308" y="602" type="line"/>
      <point x="358" y="602"/>
      <point x="398" y="625"/>
      <point x="398" y="679" type="curve" smooth="yes"/>
      <point x="398" y="734"/>
      <point x="358" y="757"/>
      <point x="308" y="757" type="curve"/>
    </contour>
  </outline>
</glyph>
<glyph name="two.den" format="2">
  <advance width="397"/>
  <outline>
    <contour>
      <point x="239" y="50" type="line" smooth="yes"/>
      <point x="301" y="50"/>
      <point x="316" y="54"/>
      <point x="320" y="73" type="curve" smooth="yes"/>
      <point x="329" y="117" type="line"/>
      <point x="361" y="117" type="line"/>
      <point x="361" y="0" type="line"/>
      <point x="27" y="0" type="line"/>
      <point x="27" y="38" type="line"/>
      <point x="176" y="107"/>
      <point x="262" y="161"/>
      <point x="262" y="248" type="curve" smooth="yes"/>
      <point x="262" y="299"/>
      <point x="232" y="320"/>
      <point x="183" y="320" type="curve" smooth="yes"/>
      <point x="136" y="320"/>
      <point x="100" y="303"/>
      <point x="81" y="276" type="curve"/>
      <point x="81" y="293"/>
      <point x="92" y="308"/>
      <point x="107" y="309" type="curve"/>
      <point x="107" y="245" type="line"/>
      <point x="37" y="245" type="line"/>
      <point x="37" y="296" type="line"/>
      <point x="63" y="320"/>
      <point x="116" y="346"/>
      <point x="188" y="346" type="curve" smooth="yes"/>
      <point x="288" y="346"/>
      <point x="345" y="311"/>
      <point x="345" y="246" type="curve" smooth="yes"/>
      <point x="345" y="160"/>
      <point x="193" y="85"/>
      <point x="65" y="34" type="curve"/>
      <point x="63" y="34"/>
      <point x="74" y="49"/>
      <point x="74" y="50" type="curve"/>
    </contour>
  </outline>
</glyph>
<glyph name="whitediamond" format="2">
  <advance width="774"/>
  <outline>
    <contour>
      <point x="387" y="52" type="line"/>
      <point x="716" y="313" type="line"/>
      <point x="387" y="574" type="line"/>
      <point x="58" y="313" type="line"/>
    </contour>
    <contour>
      <point x="387" y="106" type="line"/>
      <point x="125" y="313" type="line"/>
      <point x="387" y="520" type="line"/>
      <point x="648" y="313" type="line"/>
    </contour>
  </outline>
</glyph>
<glyph name="zero.den" format="2">
  <advance width="399"/>
  <outline>
    <contour>
      <point x="199" y="347" type="curve" smooth="yes"/>
      <point x="97" y="347"/>
      <point x="25" y="277"/>
      <point x="25" y="170" type="curve" smooth="yes"/>
      <point x="25" y="64"/>
      <point x="97" y="-6"/>
      <point x="199" y="-6" type="curve" smooth="yes"/>
      <point x="302" y="-6"/>
      <point x="373" y="64"/>
      <point x="373" y="171" type="curve" smooth="yes"/>
      <point x="373" y="277"/>
      <point x="302" y="347"/>
    </contour>
    <contour>
      <point x="199" y="19" type="curve" smooth="yes"/>
      <point x="143" y="19"/>
      <point x="109" y="66"/>
      <point x="109" y="170" type="curve" smooth="yes"/>
      <point x="109" y="274"/>
      <point x="143" y="322"/>
      <point x="199" y="322" type="curve" smooth="yes"/>
      <point x="256" y="322"/>
      <point x="289" y="275"/>
      <point x="289" y="171" type="curve" smooth="yes"/>
      <point x="289" y="67"/>
      <point x="256" y="19"/>
    </contour>
  </outline>
</glyph>
<glyph name="zero.slash" format="2">
  <advance width="695"/>
  <outline>
    <contour>
      <point x="155" y="137" type="line"/>
      <point x="571" y="446" type="line"/>
      <point x="545" y="471" type="line"/>
      <point x="126" y="159" type="line"/>
    </contour>
    <contour>
      <point x="348" y="-10" type="curve" smooth="yes"/>
      <point x="525" y="-10"/>
      <point x="653" y="117"/>
      <point x="653" y="305" type="curve" smooth="yes"/>
      <point x="653" y="492"/>
      <point x="525" y="619"/>
      <point x="348" y="619" type="curve" smooth="yes"/>
      <point x="170" y="619"/>
      <point x="42" y="492"/>
      <point x="42" y="305" type="curve" smooth="yes"/>
      <point x="42" y="117"/>
      <point x="170" y="-10"/>
    </contour>
    <contour>
      <point x="348" y="20" type="curve" smooth="yes"/>
      <point x="216" y="20"/>
      <point x="143" y="131"/>
      <point x="143" y="305" type="curve" smooth="yes"/>
      <point x="143" y="478"/>
      <point x="216" y="589"/>
      <point x="348" y="589" type="curve" smooth="yes"/>
      <point x="479" y="589"/>
      <point x="552" y="478"/>
      <point x="552" y="305" type="curve" smooth="yes"/>
      <point x="552" y="131"/>
      <point x="479" y="20"/>
    </contour>
  </outline>
</glyph>
